<svg width="108" height="29" viewBox="0 0 108 29" fill="none" xmlns="http://www.w3.org/2000/svg">
<path d="M12.496 28.16C9.95733 28.16 7.74933 27.7013 5.872 26.784C3.99467 25.8453 2.55467 24.5227 1.552 22.816C0.549333 21.1093 0.0480001 19.1253 0.0480001 16.864C0.0480001 13.728 0.634667 10.944 1.808 8.512C3.00267 6.08 4.61333 4.20267 6.64 2.88C8.66667 1.536 10.9173 0.863998 13.392 0.863998C15.696 0.863998 17.4453 1.46133 18.64 2.656C19.8347 3.82933 20.432 5.38667 20.432 7.328C20.432 8.62933 20.1973 9.67467 19.728 10.464C19.28 11.2533 18.6293 11.648 17.776 11.648C17.1787 11.648 16.7093 11.5093 16.368 11.232C16.0267 10.9547 15.856 10.5493 15.856 10.016C15.856 9.824 15.8987 9.472 15.984 8.96C16.112 8.32 16.176 7.808 16.176 7.424C16.176 5.48267 15.1413 4.512 13.072 4.512C11.664 4.512 10.32 4.97067 9.04 5.888C7.76 6.80533 6.72533 8.16 5.936 9.952C5.14667 11.7227 4.752 13.8347 4.752 16.288C4.752 18.848 5.46667 20.832 6.896 22.24C8.32533 23.6267 10.4373 24.32 13.232 24.32C14.6187 24.32 16.016 24.1493 17.424 23.808C18.8533 23.4453 20.432 22.9013 22.16 22.176C22.48 22.048 22.7467 21.984 22.96 21.984C23.3013 21.984 23.5573 22.112 23.728 22.368C23.8987 22.624 23.984 22.9547 23.984 23.36C23.984 24.6613 23.28 25.6213 21.872 26.24C20.3573 26.9013 18.7787 27.392 17.136 27.712C15.5147 28.0107 13.968 28.16 12.496 28.16ZM25.6655 10.976C24.7695 10.976 24.0975 10.7733 23.6495 10.368C23.2015 9.94133 22.9775 9.35467 22.9775 8.608C22.9775 7.86133 23.2655 7.24267 23.8415 6.752C24.4388 6.24 25.1748 5.984 26.0495 5.984C26.8388 5.984 27.4788 6.176 27.9695 6.56C28.4602 6.944 28.7055 7.488 28.7055 8.192C28.7055 9.04533 28.4282 9.728 27.8735 10.24C27.3188 10.7307 26.5828 10.976 25.6655 10.976ZM25.4095 28.16C24.0228 28.16 23.0095 27.6693 22.3695 26.688C21.7508 25.7067 21.4415 24.4053 21.4415 22.784C21.4415 21.824 21.5588 20.5973 21.7935 19.104C22.0495 17.5893 22.3695 16.1813 22.7535 14.88C22.9455 14.1973 23.2015 13.728 23.5215 13.472C23.8415 13.216 24.3535 13.088 25.0575 13.088C26.1455 13.088 26.6895 13.4507 26.6895 14.176C26.6895 14.7093 26.4868 15.9467 26.0815 17.888C25.5695 20.2347 25.3135 21.824 25.3135 22.656C25.3135 23.296 25.3988 23.7867 25.5695 24.128C25.7402 24.4693 26.0282 24.64 26.4335 24.64C26.8175 24.64 27.2975 24.3733 27.8735 23.84C28.4495 23.3067 29.2175 22.464 30.1775 21.312C30.4335 21.0133 30.7215 20.864 31.0415 20.864C31.3188 20.864 31.5322 20.992 31.6815 21.248C31.8522 21.504 31.9375 21.856 31.9375 22.304C31.9375 23.1573 31.7348 23.8187 31.3295 24.288C29.2175 26.8693 27.2442 28.16 25.4095 28.16ZM31.6205 28.16C30.8098 28.16 30.2338 27.7333 29.8925 26.88C29.5725 26.0267 29.4125 24.6613 29.4125 22.784C29.4125 20.0107 29.8072 17.376 30.5965 14.88C30.7885 14.2613 31.0978 13.8133 31.5245 13.536C31.9725 13.2373 32.5912 13.088 33.3805 13.088C33.8072 13.088 34.1058 13.1413 34.2765 13.248C34.4472 13.3547 34.5325 13.5573 34.5325 13.856C34.5325 14.1973 34.3725 14.9653 34.0525 16.16C33.8392 17.0133 33.6685 17.76 33.5405 18.4C33.4125 19.04 33.3058 19.8293 33.2205 20.768C33.9245 18.9333 34.7138 17.44 35.5885 16.288C36.4632 15.136 37.3165 14.3147 38.1485 13.824C39.0018 13.3333 39.7805 13.088 40.4845 13.088C41.8712 13.088 42.5645 13.7813 42.5645 15.168C42.5645 16 42.3298 17.504 41.8605 19.68C41.4552 21.536 41.2525 22.7627 41.2525 23.36C41.2525 24.2133 41.5618 24.64 42.1805 24.64C42.6072 24.64 43.1085 24.384 43.6845 23.872C44.2818 23.3387 45.0712 22.4853 46.0525 21.312C46.3085 21.0133 46.5965 20.864 46.9165 20.864C47.1938 20.864 47.4072 20.992 47.5565 21.248C47.7272 21.504 47.8125 21.856 47.8125 22.304C47.8125 23.1573 47.6098 23.8187 47.2045 24.288C46.2872 25.4187 45.2952 26.3467 44.2285 27.072C43.1832 27.7973 41.9885 28.16 40.6445 28.16C39.5565 28.16 38.7352 27.8507 38.1805 27.232C37.6258 26.592 37.3485 25.6747 37.3485 24.48C37.3485 23.8827 37.4978 22.816 37.7965 21.28C38.0738 19.936 38.2125 19.008 38.2125 18.496C38.2125 18.1547 38.0952 17.984 37.8605 17.984C37.5832 17.984 37.1885 18.3467 36.6765 19.072C36.1858 19.776 35.6738 20.7147 35.1405 21.888C34.6285 23.0613 34.2125 24.2987 33.8925 25.6C33.6578 26.6027 33.3805 27.2853 33.0605 27.648C32.7618 27.9893 32.2818 28.16 31.6205 28.16ZM59.4955 20.864C59.7728 20.864 59.9862 20.992 60.1355 21.248C60.3062 21.504 60.3915 21.856 60.3915 22.304C60.3915 23.1573 60.1888 23.8187 59.7835 24.288C58.9942 25.248 57.8742 26.1333 56.4235 26.944C54.9942 27.7547 53.4582 28.16 51.8155 28.16C49.5755 28.16 47.8368 27.552 46.5995 26.336C45.3622 25.12 44.7435 23.456 44.7435 21.344C44.7435 19.872 45.0528 18.5067 45.6715 17.248C46.2902 15.968 47.1435 14.9547 48.2315 14.208C49.3408 13.4613 50.5888 13.088 51.9755 13.088C53.2128 13.088 54.2048 13.4613 54.9515 14.208C55.6982 14.9333 56.0715 15.9253 56.0715 17.184C56.0715 18.656 55.5382 19.9253 54.4715 20.992C53.4262 22.0373 51.6448 22.8693 49.1275 23.488C49.6608 24.4693 50.6742 24.96 52.1675 24.96C53.1275 24.96 54.2155 24.6293 55.4315 23.968C56.6688 23.2853 57.7355 22.4 58.6315 21.312C58.8875 21.0133 59.1755 20.864 59.4955 20.864ZM51.4315 16.224C50.6422 16.224 49.9702 16.6827 49.4155 17.6C48.8822 18.5173 48.6155 19.6267 48.6155 20.928V20.992C49.8742 20.6933 50.8662 20.2453 51.5915 19.648C52.3168 19.0507 52.6795 18.3573 52.6795 17.568C52.6795 17.1627 52.5622 16.8427 52.3275 16.608C52.1142 16.352 51.8155 16.224 51.4315 16.224ZM60.058 28.16C59.2473 28.16 58.6713 27.7333 58.33 26.88C58.01 26.0267 57.85 24.6613 57.85 22.784C57.85 20.0107 58.2447 17.376 59.034 14.88C59.226 14.2613 59.5353 13.8133 59.962 13.536C60.41 13.2373 61.0287 13.088 61.818 13.088C62.2447 13.088 62.5433 13.1413 62.714 13.248C62.8847 13.3547 62.97 13.5573 62.97 13.856C62.97 14.1973 62.81 14.9653 62.49 16.16C62.2767 17.0133 62.106 17.76 61.978 18.4C61.85 19.0187 61.7433 19.7973 61.658 20.736C62.234 19.072 62.9167 17.664 63.706 16.512C64.5167 15.36 65.338 14.5067 66.17 13.952C67.0233 13.376 67.8233 13.088 68.57 13.088C69.3167 13.088 69.8393 13.2587 70.138 13.6C70.458 13.9413 70.618 14.464 70.618 15.168C70.618 15.8507 70.4153 17.088 70.01 18.88C69.8393 19.648 69.722 20.224 69.658 20.608C70.7247 17.984 71.9087 16.0747 73.21 14.88C74.5113 13.6853 75.7273 13.088 76.858 13.088C78.2447 13.088 78.938 13.7813 78.938 15.168C78.938 16 78.7033 17.504 78.234 19.68C77.8287 21.536 77.626 22.7627 77.626 23.36C77.626 24.2133 77.9353 24.64 78.554 24.64C78.9807 24.64 79.482 24.384 80.058 23.872C80.6553 23.3387 81.4447 22.4853 82.426 21.312C82.682 21.0133 82.97 20.864 83.29 20.864C83.5673 20.864 83.7807 20.992 83.93 21.248C84.1007 21.504 84.186 21.856 84.186 22.304C84.186 23.1573 83.9833 23.8187 83.578 24.288C82.6607 25.4187 81.6687 26.3467 80.602 27.072C79.5567 27.7973 78.362 28.16 77.018 28.16C75.93 28.16 75.1087 27.8507 74.554 27.232C73.9993 26.592 73.722 25.6747 73.722 24.48C73.722 23.8827 73.8713 22.816 74.17 21.28C74.4473 19.936 74.586 19.008 74.586 18.496C74.586 18.1547 74.4687 17.984 74.234 17.984C73.9567 17.984 73.562 18.3467 73.05 19.072C72.538 19.776 72.026 20.7147 71.514 21.888C71.002 23.0613 70.586 24.2987 70.266 25.6C70.0313 26.624 69.754 27.3067 69.434 27.648C69.1353 27.9893 68.6447 28.16 67.962 28.16C67.258 28.16 66.7247 27.8293 66.362 27.168C66.0207 26.4853 65.85 25.664 65.85 24.704C65.85 23.8933 65.9567 22.72 66.17 21.184C66.3407 19.8187 66.426 18.9227 66.426 18.496C66.426 18.1547 66.3087 17.984 66.074 17.984C65.754 17.984 65.3487 18.368 64.858 19.136C64.3673 19.904 63.8873 20.8853 63.418 22.08C62.97 23.2747 62.6073 24.448 62.33 25.6C62.0953 26.6027 61.818 27.2853 61.498 27.648C61.1993 27.9893 60.7193 28.16 60.058 28.16ZM84.8625 28.16C83.9025 28.16 83.1132 27.7227 82.4945 26.848C81.8972 25.952 81.5985 24.8427 81.5985 23.52C81.5985 21.92 81.7052 20.4587 81.9185 19.136C82.1318 17.792 82.4838 16.3733 82.9745 14.88C83.1878 14.24 83.4865 13.7813 83.8705 13.504C84.2545 13.2267 84.8625 13.088 85.6945 13.088C86.1638 13.088 86.4838 13.1627 86.6545 13.312C86.8465 13.4613 86.9425 13.6853 86.9425 13.984C86.9425 14.1547 86.8252 14.7307 86.5905 15.712C86.3772 16.5013 86.2065 17.216 86.0785 17.856C85.6518 20.096 85.4385 21.5893 85.4385 22.336C85.4385 22.784 85.4918 23.104 85.5985 23.296C85.7052 23.4667 85.8758 23.552 86.1105 23.552C86.4305 23.552 86.8252 23.232 87.2945 22.592C87.7852 21.952 88.2972 20.9813 88.8305 19.68C89.3852 18.3787 89.9185 16.7787 90.4305 14.88C90.6012 14.24 90.8572 13.7813 91.1985 13.504C91.5612 13.2267 92.0945 13.088 92.7985 13.088C93.2892 13.088 93.6305 13.152 93.8225 13.28C94.0145 13.3867 94.1105 13.6 94.1105 13.92C94.1105 14.4533 93.8438 15.9147 93.3105 18.304C92.7132 21.0347 92.4145 22.72 92.4145 23.36C92.4145 23.7653 92.4998 24.0853 92.6705 24.32C92.8412 24.5333 93.0652 24.64 93.3425 24.64C93.7692 24.64 94.2705 24.384 94.8465 23.872C95.4438 23.3387 96.2332 22.4853 97.2145 21.312C97.4705 21.0133 97.7585 20.864 98.0785 20.864C98.3558 20.864 98.5692 20.992 98.7185 21.248C98.8892 21.504 98.9745 21.856 98.9745 22.304C98.9745 23.1573 98.7718 23.8187 98.3665 24.288C97.4492 25.4187 96.4572 26.3467 95.3905 27.072C94.3452 27.7973 93.1505 28.16 91.8065 28.16C90.7825 28.16 90.0252 27.7653 89.5345 26.976C89.0652 26.1867 88.8305 25.0773 88.8305 23.648C88.4678 25.0987 87.9238 26.2187 87.1985 27.008C86.4732 27.776 85.6945 28.16 84.8625 28.16ZM102.332 28.864C101.222 28.864 100.369 28.608 99.7718 28.096C99.1958 27.584 98.9078 27.008 98.9078 26.368C98.9078 25.8133 99.1104 25.3333 99.5158 24.928C99.9211 24.5227 100.518 24.32 101.308 24.32C101.585 24.32 101.905 24.352 102.268 24.416C102.652 24.4587 102.94 24.4907 103.132 24.512C103.11 23.9573 102.982 23.4347 102.748 22.944C102.534 22.4533 102.257 21.984 101.916 21.536C101.574 21.0667 101.254 20.6613 100.956 20.32C100.294 21.5787 99.6331 22.624 98.9718 23.456C98.3318 24.288 97.6278 25.0773 96.8598 25.824C96.4758 26.208 96.0704 26.4 95.6438 26.4C95.3024 26.4 95.0251 26.2827 94.8117 26.048C94.5984 25.792 94.4917 25.4827 94.4917 25.12C94.4917 24.6933 94.6411 24.2987 94.9398 23.936L95.3558 23.424C96.5291 21.9733 97.4144 20.7787 98.0118 19.84C98.3958 19.2213 98.7798 18.4853 99.1638 17.632C99.5691 16.7787 100.092 15.616 100.732 14.144C101.137 13.2053 101.98 12.736 103.26 12.736C103.857 12.736 104.273 12.7893 104.508 12.896C104.742 13.0027 104.86 13.1733 104.86 13.408C104.86 13.536 104.817 13.7387 104.732 14.016C104.646 14.2933 104.529 14.5707 104.38 14.848C103.996 15.616 103.804 16.2667 103.804 16.8C103.804 17.12 103.91 17.472 104.124 17.856C104.358 18.24 104.71 18.72 105.18 19.296C105.862 20.192 106.374 20.96 106.716 21.6C107.078 22.2187 107.26 22.9013 107.26 23.648C107.26 24.544 107.046 25.3973 106.62 26.208C106.214 26.9973 105.638 27.6373 104.892 28.128C104.145 28.6187 103.292 28.864 102.332 28.864Z" fill="#FCEB00"/>
</svg>
